<svg xmlns="http://www.w3.org/2000/svg" viewBox="0 0 48 48"><defs><style>.cls-1{fill:#1e0f00}</style></defs><g id="Layer_2" data-name="Layer 2"><g id="_1" data-name="1"><path class="cls-1" d="M22 10h6v2h-6zM11 10h9v2h-9zM11 15h14v2H11zM19 20h5v2h-5zM11 20h6v2h-6zM11 25h14v2H11zM21 30h7v2h-7zM21 35h9v2h-9zM32 35h5v2h-5z"/><path class="cls-1" d="M41 42H17a1 1 0 0 1-.71-.29l-10-10A1 1 0 0 1 6 31V1a1 1 0 0 1 1-1h34a1 1 0 0 1 1 1v8h-2V2H8v28.59L17.41 40H40v-7h2v8a1 1 0 0 1-1 1z"/><path class="cls-1" d="M35 48H1a1 1 0 0 1-1-1V7a1 1 0 0 1 1-1h4v2H2v38h32v-3h2v4a1 1 0 0 1-1 1z"/><path class="cls-1" d="M17 42a1 1 0 0 1-.71-.29l-10-10a1 1 0 0 1-.21-1.09A1 1 0 0 1 7 30h10a1 1 0 0 1 1 1v10a1 1 0 0 1-.62.92.84.84 0 0 1-.38.08zM9.41 32 16 38.59V32zM17 5h14v2H17zM37 32a11 11 0 1 1 11-11 11 11 0 0 1-11 11zm0-20a9 9 0 1 0 9 9 9 9 0 0 0-9-9z"/><path class="cls-1" d="m39.2 25.6-3-4a1 1 0 0 1 .09-1.31l5-5 1.42 1.42-4.39 4.38 2.48 3.31z"/></g></g></svg>